HIERARCHY
ROOT Hips
{
	OFFSET 0.000000 103.266502 0.000000
	CHANNELS 6 Xposition Yposition Zposition Xrotation Yrotation Zrotation 
	JOINT Spine
	{
		OFFSET -0.002400 12.777504 0.315300
		CHANNELS 3 Xrotation Yrotation Zrotation
		JOINT Spine1
		{
			OFFSET -0.002067 5.816869 0.032633
			CHANNELS 3 Xrotation Yrotation Zrotation
			JOINT Spine1_split
			{
				OFFSET -0.002067 5.816869 0.032633
				CHANNELS 3 Xrotation Yrotation Zrotation
				JOINT Spine2
				{
					OFFSET -0.002067 5.816869 0.032633
					CHANNELS 3 Xrotation Yrotation Zrotation
					JOINT Neck
					{
						OFFSET -0.003700 21.199493 -0.826900
						CHANNELS 3 Xrotation Yrotation Zrotation
						JOINT Head
						{
							OFFSET 0.000000 20.442200 4.834800
							CHANNELS 3 Xrotation Yrotation Zrotation
							JOINT HeadTop_End
							{
								OFFSET 0.000000 34.668396 4.968400
								CHANNELS 3 Xrotation Yrotation Zrotation
								End Site
								{
									OFFSET 0.000000 0.000000 0.000000
								}
							}
						}
					}
					JOINT LeftShoulder
					{
						OFFSET 3.288150 8.794197 -1.372250
						CHANNELS 3 Xrotation Yrotation Zrotation
						JOINT LeftShoulder_split
						{
							OFFSET 3.288150 8.794197 -1.372250
							CHANNELS 3 Xrotation Yrotation Zrotation
							JOINT LeftArm
							{
								OFFSET 11.953299 -2.279007 -0.146200
								CHANNELS 3 Xrotation Yrotation Zrotation
								JOINT LeftForeArm
								{
									OFFSET 18.448900 0.000000 0.000000
									CHANNELS 3 Xrotation Yrotation Zrotation
									JOINT LeftHand
									{
										OFFSET 29.527798 0.000000 0.000000
										CHANNELS 3 Xrotation Yrotation Zrotation
										JOINT LeftHandThumb1
										{
											OFFSET 10.739754 -2.369614 9.225399
											CHANNELS 3 Xrotation Yrotation Zrotation
											JOINT LeftHandThumb2
											{
												OFFSET 4.926170 -2.844131 2.844125
												CHANNELS 3 Xrotation Yrotation Zrotation
												JOINT LeftHandThumb3
												{
													OFFSET 4.614891 -2.664413 2.664409
													CHANNELS 3 Xrotation Yrotation Zrotation
													JOINT LeftHandThumb4
													{
														OFFSET 4.432465 -2.559082 2.559083
														CHANNELS 3 Xrotation Yrotation Zrotation
														End Site
														{
															OFFSET 0.000000 0.000000 0.000000
														}
													}
												}
											}
										}
										JOINT LeftHandIndex1
										{
											OFFSET 26.467674 0.187653 6.405298
											CHANNELS 3 Xrotation Yrotation Zrotation
											JOINT LeftHandIndex2
											{
												OFFSET 8.792900 0.000000 0.000000
												CHANNELS 3 Xrotation Yrotation Zrotation
												JOINT LeftHandIndex3
												{
													OFFSET 10.075203 0.000000 0.000000
													CHANNELS 3 Xrotation Yrotation Zrotation
													End Site
													{
														OFFSET 0.000000 0.000000 0.000000
													}
												}
											}
										}
										JOINT LeftHandMiddle1
										{
											OFFSET 25.764404 0.000000 0.000000
											CHANNELS 3 Xrotation Yrotation Zrotation
											JOINT LeftHandMiddle2
											{
												OFFSET 9.393974 0.000000 0.000000
												CHANNELS 3 Xrotation Yrotation Zrotation
												JOINT LeftHandMiddle3
												{
													OFFSET 10.771950 0.000000 0.000000
													CHANNELS 3 Xrotation Yrotation Zrotation
													End Site
													{
														OFFSET 0.000000 0.000000 0.000000
													}
												}
											}
										}
										JOINT LeftHandRing1
										{
											OFFSET 24.660927 0.144547 -6.225808
											CHANNELS 3 Xrotation Yrotation Zrotation
											JOINT LeftHandRing2
											{
												OFFSET 9.393799 0.000000 0.000000
												CHANNELS 3 Xrotation Yrotation Zrotation
												JOINT LeftHandRing3
												{
													OFFSET 9.928497 0.000000 0.000000
													CHANNELS 3 Xrotation Yrotation Zrotation
													End Site
													{
														OFFSET 0.000000 0.000000 0.000000
													}
												}
											}
										}
										JOINT LeftHandPinky1
										{
											OFFSET 23.655350 0.125290 -12.815412
											CHANNELS 3 Xrotation Yrotation Zrotation
											JOINT LeftHandPinky2
											{
												OFFSET 8.425102 0.000000 0.000000
												CHANNELS 3 Xrotation Yrotation Zrotation
												JOINT LeftHandPinky3
												{
													OFFSET 8.147003 0.000000 0.000000
													CHANNELS 3 Xrotation Yrotation Zrotation
													End Site
													{
														OFFSET 0.000000 0.000000 0.000000
													}
												}
											}
										}
									}
								}
							}
						}
					}
					JOINT RightShoulder
					{
						OFFSET -3.249400 8.794197 -1.372250
						CHANNELS 3 Xrotation Yrotation Zrotation
						JOINT RightShoulder_split
						{
							OFFSET -3.249400 8.794197 -1.372250
							CHANNELS 3 Xrotation Yrotation Zrotation
							JOINT RightArm
							{
								OFFSET -11.953299 -2.279007 -0.146200
								CHANNELS 3 Xrotation Yrotation Zrotation
								JOINT RightForeArm
								{
									OFFSET -18.448900 0.000000 0.000000
									CHANNELS 3 Xrotation Yrotation Zrotation
									JOINT RightHand
									{
										OFFSET -29.527802 0.000000 0.000000
										CHANNELS 3 Xrotation Yrotation Zrotation
										JOINT RightHandThumb1
										{
											OFFSET -10.739754 -2.369614 9.225399
											CHANNELS 3 Xrotation Yrotation Zrotation
											JOINT RightHandThumb2
											{
												OFFSET -4.926170 -2.844131 2.844125
												CHANNELS 3 Xrotation Yrotation Zrotation
												JOINT RightHandThumb3
												{
													OFFSET -4.614891 -2.664413 2.664409
													CHANNELS 3 Xrotation Yrotation Zrotation
													JOINT RightHandThumb4
													{
														OFFSET -4.432465 -2.559082 2.559083
														CHANNELS 3 Xrotation Yrotation Zrotation
														End Site
														{
															OFFSET 0.000000 0.000000 0.000000
														}
													}
												}
											}
										}
										JOINT RightHandIndex1
										{
											OFFSET -26.467674 0.187653 6.405298
											CHANNELS 3 Xrotation Yrotation Zrotation
											JOINT RightHandIndex2
											{
												OFFSET -8.792900 0.000000 0.000000
												CHANNELS 3 Xrotation Yrotation Zrotation
												JOINT RightHandIndex3
												{
													OFFSET -10.075203 0.000000 0.000000
													CHANNELS 3 Xrotation Yrotation Zrotation
													End Site
													{
														OFFSET 0.000000 0.000000 0.000000
													}
												}
											}
										}
										JOINT RightHandMiddle1
										{
											OFFSET -25.764404 0.000000 0.000000
											CHANNELS 3 Xrotation Yrotation Zrotation
											JOINT RightHandMiddle2
											{
												OFFSET -9.393974 0.000000 0.000000
												CHANNELS 3 Xrotation Yrotation Zrotation
												JOINT RightHandMiddle3
												{
													OFFSET -10.771950 0.000000 0.000000
													CHANNELS 3 Xrotation Yrotation Zrotation
													End Site
													{
														OFFSET 0.000000 0.000000 0.000000
													}
												}
											}
										}
										JOINT RightHandRing1
										{
											OFFSET -24.660927 0.144547 -6.225808
											CHANNELS 3 Xrotation Yrotation Zrotation
											JOINT RightHandRing2
											{
												OFFSET -9.393799 0.000000 0.000000
												CHANNELS 3 Xrotation Yrotation Zrotation
												JOINT RightHandRing3
												{
													OFFSET -9.928497 0.000000 0.000000
													CHANNELS 3 Xrotation Yrotation Zrotation
													End Site
													{
														OFFSET 0.000000 0.000000 0.000000
													}
												}
											}
										}
										JOINT RightHandPinky1
										{
											OFFSET -23.655350 0.125290 -12.815412
											CHANNELS 3 Xrotation Yrotation Zrotation
											JOINT RightHandPinky2
											{
												OFFSET -8.425102 0.000000 0.000000
												CHANNELS 3 Xrotation Yrotation Zrotation
												JOINT RightHandPinky3
												{
													OFFSET -8.147003 0.000000 0.000000
													CHANNELS 3 Xrotation Yrotation Zrotation
													End Site
													{
														OFFSET 0.000000 0.000000 0.000000
													}
												}
											}
										}
									}
								}
							}
						}
					}
				}
			}
		}
	}
	JOINT LeftUpLeg
	{
		OFFSET 11.394100 -6.187798 -0.413800
		CHANNELS 3 Xrotation Yrotation Zrotation
		JOINT LeftLeg
		{
			OFFSET 0.430247 -32.302673 3.732800
			CHANNELS 3 Xrotation Yrotation Zrotation
			JOINT LeftFoot
			{
				OFFSET -0.430247 -48.264931 -6.423300
				CHANNELS 3 Xrotation Yrotation Zrotation
				JOINT LeftToeBase
				{
					OFFSET 4.230900 -16.068199 23.438400
					CHANNELS 3 Xrotation Yrotation Zrotation
					JOINT LeftToe_End
					{
						OFFSET 4.510700 0.695400 19.974600
						CHANNELS 3 Xrotation Yrotation Zrotation
						End Site
						{
							OFFSET 0.000000 0.000000 0.000000
						}
					}
				}
			}
		}
	}
	JOINT RightUpLeg
	{
		OFFSET -11.333700 -6.187798 -0.413800
		CHANNELS 3 Xrotation Yrotation Zrotation
		JOINT RightLeg
		{
			OFFSET -0.430392 -32.302628 3.733000
			CHANNELS 3 Xrotation Yrotation Zrotation
			JOINT RightFoot
			{
				OFFSET 0.430392 -48.264973 -6.423500
				CHANNELS 3 Xrotation Yrotation Zrotation
				JOINT RightToeBase
				{
					OFFSET -4.230900 -16.068199 23.438400
					CHANNELS 3 Xrotation Yrotation Zrotation
					JOINT RightToe_End
					{
						OFFSET -4.510700 0.695400 19.974600
						CHANNELS 3 Xrotation Yrotation Zrotation
						End Site
						{
							OFFSET 0.000000 0.000000 0.000000
						}
					}
				}
			}
		}
	}
}
MOTION
Frames: 6
Frame Time: 0.016667
0.819981 52.137909 -2.319014 0.754685 -24.804331 9.322226 2.869223 -0.737965 -5.951919 2.227983 -1.286566 -3.027762 0.000000 0.000000 0.000000 2.233814 -1.285669 -3.025124 -3.962410 3.288533 2.946570 -0.115029 19.920373 2.691781 0.000000 0.000000 0.000000 0.452719 1.693818 1.739610 0.000000 0.000000 0.000000 -1.798688 -11.700852 -58.798660 -0.000329 -83.306738 -0.000302 -56.402900 17.147782 27.573305 -1.540058 3.690182 6.142343 3.939060 7.948710 0.746821 -0.579468 1.574999 2.538708 -0.000000 -0.000002 -0.000000 1.016532 3.605838 -31.478699 1.016531 3.605841 -31.478709 -0.000001 0.000001 0.000000 1.299280 4.030460 -35.722883 1.301554 4.033590 -35.755009 -0.000001 -0.000000 -0.000001 1.751611 4.592882 -41.733692 1.751608 4.592887 -41.733699 0.000002 0.000000 -0.000000 4.911449 7.752504 -44.887884 2.046410 0.814392 -45.446965 -0.000001 0.000000 -0.000001 5.136814 17.382618 7.477152 0.000000 0.000000 0.000000 14.034100 22.826736 31.042274 0.000028 121.743956 -0.000027 2.429563 -25.805961 9.048799 -1.849246 -3.581787 -6.586135 4.637198 -8.634122 -0.225401 -1.273750 0.137310 -2.094868 -0.000004 -0.000002 -0.000000 0.013974 -0.441467 3.625097 0.176771 -1.560951 12.920987 -0.000000 0.000004 -0.000003 0.522933 -2.650075 22.321576 0.387255 -2.292324 19.175947 0.000000 0.000000 -0.000000 0.723854 -3.093976 26.329768 0.387263 -2.292314 19.175942 0.000001 0.000000 0.000001 1.074280 -3.717932 32.222886 0.387273 -2.292329 19.175939 0.000000 -0.000002 -0.000000 -86.093551 -16.027035 47.297708 73.526392 8.464750 -5.536330 33.426232 -2.349598 -10.089062 -0.000647 0.000006 -0.000003 -0.000000 0.000000 0.000000 -37.191760 -1.049896 -16.695883 110.848841 -1.355198 -2.089372 44.195391 5.288335 13.199884 54.603783 -3.863694 -8.126487 -0.000000 -0.000001 -0.000000 
0.810244 52.150673 -2.312182 0.786975 -24.767898 9.328041 2.866338 -0.749060 -5.956772 2.224216 -1.288402 -3.033397 0.000000 0.000000 0.000000 2.230125 -1.286490 -3.030591 -3.922926 3.288504 2.958156 -0.049251 19.944321 2.683306 0.000000 0.000000 -0.000000 0.482385 1.632740 1.765588 0.000000 0.000000 0.000000 -1.851256 -11.677330 -58.833180 -0.000040 -83.371167 -0.000051 -56.190720 17.156025 27.669301 -1.540059 3.690180 6.142343 3.939060 7.948710 0.746822 -0.579467 1.574991 2.538707 -0.000000 0.000004 0.000000 1.016531 3.605833 -31.478699 1.016534 3.605842 -31.478709 -0.000001 -0.000001 -0.000000 1.299279 4.030452 -35.722880 1.301551 4.033593 -35.755006 -0.000001 -0.000000 0.000000 1.751610 4.592880 -41.733689 1.751612 4.592884 -41.733699 -0.000003 -0.000000 -0.000000 4.911447 7.752496 -44.887887 2.046411 0.814393 -45.446965 0.000002 0.000000 0.000000 5.151218 17.427059 7.474815 0.000000 0.000000 0.000000 14.053423 22.660445 31.058123 -0.000003 121.812326 0.000002 2.471101 -25.904525 9.104237 -1.849248 -3.581783 -6.586138 4.637199 -8.634119 -0.225400 -1.273751 0.137308 -2.094869 0.000004 0.000001 -0.000001 0.013966 -0.441472 3.625078 0.176778 -1.560937 12.920985 0.000003 -0.000001 -0.000002 0.522937 -2.650097 22.321538 0.387278 -2.292293 19.175934 0.000000 0.000000 0.000001 0.723853 -3.093977 26.329736 0.387262 -2.292312 19.175947 0.000000 -0.000002 -0.000000 1.074276 -3.717924 32.222855 0.387272 -2.292319 19.175949 0.000000 0.000002 -0.000000 -86.095183 -16.067076 47.267057 73.522683 8.484324 -5.582520 33.431372 -2.342058 -10.052415 -0.000658 0.000002 0.000002 -0.000000 0.000001 -0.000000 -37.315967 -1.071055 -16.702058 110.951410 -1.520511 -2.079996 44.101524 5.226050 13.031006 54.615490 -3.934470 -8.231274 -0.000000 -0.000001 -0.000000 
0.799944 52.162941 -2.308735 0.814545 -24.734743 9.332849 2.867975 -0.759653 -5.961661 2.223865 -1.290203 -3.038300 0.000000 0.000000 0.000000 2.230373 -1.288404 -3.035256 -3.886560 3.294391 2.964091 -0.011394 19.978527 2.670443 -0.000000 -0.000000 0.000000 0.506469 1.585641 1.768911 0.000000 0.000000 0.000000 -1.905207 -11.648050 -58.840598 0.000131 -83.445937 0.000148 -56.101610 17.119278 27.700872 -1.540059 3.690183 6.142343 3.939060 7.948709 0.746821 -0.579467 1.574998 2.538707 0.000000 0.000001 0.000000 1.016531 3.605843 -31.478706 1.016532 3.605842 -31.478706 -0.000000 -0.000000 0.000000 1.299280 4.030457 -35.722887 1.301551 4.033596 -35.755009 0.000004 0.000000 0.000001 1.751610 4.592882 -41.733692 1.751613 4.592886 -41.733692 -0.000000 0.000000 -0.000000 4.911446 7.752505 -44.887887 2.046412 0.814392 -45.446962 -0.000002 -0.000000 0.000000 5.163600 17.463964 7.466052 0.000000 0.000000 0.000000 14.080606 22.520696 31.066829 -0.000014 121.886638 0.000002 2.595682 -26.024040 9.128057 -1.849246 -3.581786 -6.586138 4.637200 -8.634119 -0.225399 -1.273753 0.137310 -2.094870 0.000004 -0.000000 -0.000001 0.013965 -0.441485 3.625081 0.176772 -1.560965 12.920983 -0.000000 0.000001 -0.000001 0.522925 -2.650099 22.321540 0.387281 -2.292319 19.175927 -0.000000 0.000001 0.000001 0.723846 -3.094001 26.329734 0.387271 -2.292309 19.175927 0.000000 0.000000 -0.000000 1.074287 -3.717932 32.222855 0.387262 -2.292309 19.175946 0.000000 -0.000002 -0.000000 -86.087254 -16.107032 47.236270 73.514542 8.508136 -5.627710 33.439104 -2.336223 -10.021160 -0.000662 -0.000002 -0.000005 -0.000000 -0.000000 0.000000 -37.424341 -1.099170 -16.705591 111.041684 -1.687146 -2.075467 44.018069 5.172318 12.880024 54.614203 -3.998799 -8.337625 0.000000 0.000003 0.000000 
0.788675 52.174782 -2.309298 0.838472 -24.710187 9.338749 2.873612 -0.770696 -5.967471 2.225576 -1.291793 -3.043522 0.000000 0.000000 0.000000 2.232484 -1.289741 -3.040205 -3.853553 3.304086 2.962690 -0.005853 20.019074 2.662787 0.000001 0.000000 0.000000 0.522520 1.557774 1.745666 0.000000 0.000000 0.000000 -1.958939 -11.606905 -58.821541 0.000334 -83.536806 0.000386 -56.009768 17.105230 27.723933 -1.540059 3.690182 6.142343 3.939059 7.948709 0.746821 -0.579467 1.574999 2.538708 -0.000000 -0.000000 -0.000000 1.016532 3.605838 -31.478703 1.016533 3.605840 -31.478703 0.000001 0.000000 0.000001 1.299281 4.030452 -35.722887 1.301553 4.033592 -35.755002 0.000002 -0.000000 -0.000001 1.751610 4.592882 -41.733689 1.751612 4.592883 -41.733699 0.000001 0.000000 -0.000000 4.911448 7.752502 -44.887887 2.046412 0.814393 -45.446965 -0.000001 0.000000 -0.000000 5.172912 17.491985 7.451949 0.000000 0.000000 0.000000 14.105763 22.416232 31.064096 0.000026 121.951361 -0.000028 2.794220 -26.106469 9.140197 -1.849252 -3.581786 -6.586135 4.637196 -8.634122 -0.225401 -1.273753 0.137310 -2.094871 0.000001 0.000001 0.000001 0.013970 -0.441476 3.625075 0.176769 -1.560945 12.920992 -0.000002 0.000002 0.000000 0.522932 -2.650085 22.321559 0.387261 -2.292320 19.175932 0.000001 -0.000002 0.000001 0.723823 -3.093979 26.329765 0.387277 -2.292328 19.175923 0.000000 -0.000001 0.000000 1.074277 -3.717924 32.222865 0.387280 -2.292315 19.175935 0.000000 0.000002 -0.000000 -86.064707 -16.145510 47.210271 73.501940 8.536968 -5.672186 33.447184 -2.334220 -10.004322 -0.000654 0.000004 0.000002 0.000000 0.000002 -0.000000 -37.517252 -1.128027 -16.706764 111.118551 -1.849075 -2.075560 43.948029 5.127553 12.748550 54.601304 -4.053029 -8.441989 -0.000000 -0.000001 0.000000 
0.775800 52.186226 -2.314147 0.859647 -24.696677 9.349589 2.881762 -0.782103 -5.974956 2.230089 -1.293047 -3.049933 0.000000 0.000000 0.000000 2.235820 -1.290964 -3.046375 -3.822534 3.316912 2.955110 -0.029435 20.063551 2.665990 0.000000 0.000000 0.000000 0.530833 1.548092 1.698933 0.000000 0.000000 0.000000 -2.011588 -11.548415 -58.783402 0.000598 -83.644102 0.000624 -55.910948 17.114417 27.736918 -1.540058 3.690177 6.142342 3.939059 7.948715 0.746821 -0.579467 1.574996 2.538707 -0.000000 0.000003 0.000000 1.016531 3.605841 -31.478699 1.016530 3.605843 -31.478706 0.000000 0.000001 0.000000 1.299280 4.030460 -35.722887 1.301554 4.033590 -35.755009 -0.000001 -0.000001 -0.000001 1.751610 4.592884 -41.733692 1.751612 4.592884 -41.733699 -0.000000 -0.000000 0.000000 4.911448 7.752503 -44.887887 2.046412 0.814393 -45.446962 0.000001 -0.000000 -0.000000 5.178687 17.514115 7.436940 0.000000 0.000000 0.000000 14.117860 22.346437 31.052133 0.000021 121.993107 -0.000030 3.032386 -26.098916 9.170781 -1.849252 -3.581784 -6.586137 4.637198 -8.634122 -0.225400 -1.273759 0.137310 -2.094875 0.000001 -0.000000 -0.000001 0.013972 -0.441482 3.625090 0.176765 -1.560954 12.920992 0.000000 0.000001 -0.000001 0.522941 -2.650106 22.321594 0.387270 -2.292318 19.175934 -0.000001 0.000001 0.000001 0.723851 -3.093998 26.329787 0.387252 -2.292302 19.175958 0.000000 0.000001 0.000000 1.074273 -3.717981 32.222906 0.387282 -2.292309 19.175934 0.000000 0.000002 -0.000000 -86.025263 -16.178251 47.191269 73.482208 8.570452 -5.715523 33.456148 -2.336452 -10.002209 -0.000653 -0.000003 -0.000000 0.000000 0.000001 -0.000000 -37.595376 -1.152633 -16.704754 111.180426 -1.995732 -2.080089 43.893268 5.093027 12.642625 54.584263 -4.093586 -8.533672 0.000000 0.000002 -0.000000 
0.761019 52.197151 -2.322983 0.878752 -24.693374 9.365383 2.890615 -0.793387 -5.984754 2.235916 -1.293873 -3.057969 0.000000 0.000000 0.000000 2.241406 -1.292105 -3.054250 -3.792377 3.331050 2.945767 -0.073089 20.110080 2.679627 -0.000000 -0.000000 -0.000000 0.533456 1.550898 1.639880 0.000000 0.000000 0.000000 -2.062369 -11.470491 -58.740132 0.000338 -83.761922 0.000369 -55.799493 17.140771 27.737033 -1.540060 3.690181 6.142342 3.939059 7.948713 0.746822 -0.579468 1.574996 2.538707 0.000000 -0.000001 -0.000000 1.016531 3.605834 -31.478699 1.016533 3.605840 -31.478703 -0.000002 0.000001 -0.000000 1.299280 4.030454 -35.722880 1.301555 4.033594 -35.755009 0.000001 0.000001 0.000001 1.751609 4.592880 -41.733689 1.751608 4.592883 -41.733696 0.000005 0.000000 0.000000 4.911446 7.752499 -44.887887 2.046412 0.814395 -45.446962 -0.000003 -0.000000 -0.000001 5.184949 17.530365 7.429131 0.000000 0.000000 0.000000 14.110148 22.303896 31.019236 0.000028 122.006112 -0.000020 3.259263 -25.974096 9.241021 -1.849249 -3.581784 -6.586139 4.637197 -8.634122 -0.225402 -1.273756 0.137309 -2.094869 0.000003 -0.000001 -0.000000 0.013972 -0.441458 3.625099 0.176774 -1.560960 12.920996 -0.000001 -0.000001 -0.000006 0.522938 -2.650077 22.321625 0.387271 -2.292307 19.175944 0.000000 0.000002 0.000001 0.723850 -3.093979 26.329848 0.387262 -2.292329 19.175947 0.000000 -0.000000 -0.000001 1.074290 -3.717942 32.222971 0.387269 -2.292322 19.175934 0.000000 -0.000002 -0.000000 -85.970416 -16.204115 47.180635 73.455440 8.606565 -5.758036 33.465294 -2.343078 -10.016431 -0.000657 -0.000007 -0.000006 0.000000 -0.000001 -0.000000 -37.659959 -1.169989 -16.700233 111.227124 -2.119076 -2.085637 43.854971 5.068504 12.563357 54.567860 -4.119772 -8.606581 -0.000001 -0.000001 0.000000 
